<svg width="16" height="16" viewBox="0 0 16 16" fill="none" xmlns="http://www.w3.org/2000/svg">
<mask id="mask0_3_100" style="mask-type:luminance" maskUnits="userSpaceOnUse" x="0" y="0" width="16" height="16">
<path fill-rule="evenodd" clip-rule="evenodd" d="M15.0743 3.10697C14.8839 2.6165 14.63 2.20104 14.2145 1.78559C13.7991 1.37013 13.3836 1.11624 12.8931 0.925822C12.42 0.741175 11.8718 0.61423 11.0813 0.579609L11.0679 0.579026C10.2821 0.544858 10.0197 0.533447 7.99999 0.533447C5.96887 0.533447 5.71498 0.539217 4.91869 0.579609C4.1224 0.61423 3.58 0.741175 3.10684 0.925822C2.61638 1.11624 2.20092 1.37013 1.78546 1.78559C1.37001 2.20104 1.11612 2.6165 0.9257 3.10697C0.741053 3.58012 0.614108 4.1283 0.579487 4.91882L0.578903 4.93224C0.544736 5.71803 0.533325 5.98045 0.533325 8.00011C0.533325 10.0312 0.539095 10.2851 0.579487 11.0814C0.614108 11.8777 0.741053 12.4201 0.9257 12.8933C1.11612 13.3837 1.37001 13.7992 1.78546 14.2146C2.20092 14.6301 2.61638 14.884 3.10684 15.0744C3.58 15.2591 4.12817 15.386 4.91869 15.4206L4.93211 15.4212C5.7179 15.4554 5.98032 15.4668 7.99999 15.4668C10.0311 15.4668 10.285 15.461 11.0813 15.4206C11.8776 15.386 12.42 15.2591 12.8931 15.0744C13.3836 14.884 13.7991 14.6301 14.2145 14.2146C14.63 13.7992 14.8839 13.3837 15.0743 12.8933C15.2589 12.4201 15.3859 11.8719 15.4205 11.0814L15.4211 11.068C15.4552 10.2822 15.4667 10.0198 15.4667 8.00011C15.4667 5.969 15.4609 5.71511 15.4205 4.91882C15.3859 4.12253 15.2589 3.58012 15.0743 3.10697ZM13.5578 10.7579C13.5262 11.4223 13.4154 11.7862 13.3205 12.0235C13.1992 12.3399 13.0463 12.5719 12.809 12.8092C12.5717 13.0464 12.345 13.1941 12.0233 13.3206C11.7808 13.4156 11.4222 13.5263 10.7578 13.5579L10.7235 13.5594H10.7235C10.0282 13.5899 9.79524 13.6001 7.99999 13.6001C6.17551 13.6001 5.95931 13.5948 5.24218 13.5579C4.57777 13.5263 4.21393 13.4156 3.97664 13.3206C3.66026 13.1994 3.42824 13.0464 3.19095 12.8092C2.95366 12.5719 2.80602 12.3451 2.67947 12.0235C2.58455 11.7809 2.47382 11.4223 2.44218 10.7579L2.44093 10.7294C2.41026 10.0295 2.39999 9.79515 2.39999 8.00011C2.39999 6.18091 2.40527 5.95944 2.44218 5.2423C2.47382 4.57789 2.58455 4.21405 2.67947 3.97676C2.80075 3.66038 2.95366 3.42836 3.19095 3.19108C3.42824 2.95379 3.65498 2.80614 3.97664 2.67959C4.2192 2.58467 4.57777 2.47394 5.24218 2.4423L5.27071 2.44105C5.97062 2.41038 6.20495 2.40011 7.99999 2.40011C9.8192 2.40011 10.0407 2.40539 10.7578 2.4423C11.4222 2.47394 11.7861 2.58467 12.0233 2.67959C12.3397 2.80087 12.5717 2.95379 12.809 3.19108C13.0463 3.42836 13.194 3.65511 13.3205 3.97676C13.4154 4.21932 13.5262 4.57789 13.5578 5.2423L13.5591 5.27082C13.5897 5.97073 13.6 6.20506 13.6 8.00011C13.6 9.80197 13.5896 10.0364 13.5587 10.7375V10.7376L13.5578 10.7579ZM12.6667 4.26678C12.6667 4.78225 12.2488 5.20011 11.7333 5.20011C11.2179 5.20011 10.8 4.78225 10.8 4.26678C10.8 3.75132 11.2179 3.33345 11.7333 3.33345C12.2488 3.33345 12.6667 3.75132 12.6667 4.26678ZM7.99999 4.26678C5.93964 4.26678 4.26666 5.93976 4.26666 8.00011C4.26666 10.0605 5.93964 11.7334 7.99999 11.7334C10.0603 11.7334 11.7333 10.0605 11.7333 8.00011C11.7333 5.93976 10.0603 4.26678 7.99999 4.26678ZM6.13333 8.00011C6.13333 9.03283 6.9716 9.86678 7.99999 9.86678C9.02839 9.86678 9.86666 9.02851 9.86666 8.00011C9.86666 6.9674 9.03271 6.13345 7.99999 6.13345C6.96728 6.13345 6.13333 6.97172 6.13333 8.00011Z" fill="white"/>
</mask>
<g mask="url(#mask0_3_100)">
<rect x="-4.13336" y="-4.1333" width="24.2667" height="24.2667" fill="#737373"/>
</g>
</svg>
