<svg width="18" height="15" viewBox="0 0 18 15" fill="none" xmlns="http://www.w3.org/2000/svg">
<mask id="mask0_11_9" style="mask-type:luminance" maskUnits="userSpaceOnUse" x="0" y="0" width="18" height="15">
<path fill-rule="evenodd" clip-rule="evenodd" d="M17.4 2.1234C16.7819 2.40501 16.1182 2.59509 15.4203 2.67963C16.1318 2.2424 16.6785 1.54994 16.9363 0.725014C16.2699 1.1294 15.5326 1.42448 14.7476 1.58225C14.1185 0.895707 13.2226 0.466553 12.2306 0.466553C10.327 0.466553 8.7847 2.04855 8.7847 4.00048C8.7847 4.27725 8.81463 4.54755 8.87345 4.80601C6.00886 4.65848 3.46932 3.25148 1.76895 1.11325C1.47277 1.63555 1.30263 2.2424 1.30263 2.89017C1.30263 4.11678 1.91126 5.19801 2.83549 5.83232C2.27097 5.81348 1.73954 5.65517 1.2748 5.39024C1.27427 5.40478 1.27427 5.4204 1.27427 5.4344C1.27427 7.14724 2.46212 8.57578 4.03909 8.90048C3.75027 8.98071 3.44569 9.02432 3.13114 9.02432C2.90848 9.02432 2.69318 9.00224 2.48313 8.96132C2.92109 10.3646 4.19453 11.3866 5.70218 11.4156C4.52326 12.3633 3.03714 12.9292 1.42236 12.9292C1.14404 12.9292 0.869398 12.9126 0.600006 12.8797C2.12499 13.8812 3.93669 14.4666 5.88335 14.4666C12.2227 14.4666 15.6902 9.0814 15.6902 4.41078C15.6902 4.25786 15.686 4.10494 15.6797 3.95309C16.3534 3.45501 16.9374 2.83309 17.4 2.1234Z" fill="white"/>
</mask>
<g mask="url(#mask0_11_9)">
<rect width="18" height="15" fill="#737373"/>
</g>
</svg>
